<svg width="124" height="20" viewBox="0 0 124 20" fill="none" xmlns="http://www.w3.org/2000/svg">
<circle cx="3.12369" cy="9.62174" r="3.12369" fill="#D1D5DB"/>
<line x1="7.80968" y1="9.10109" x2="43.2213" y2="9.10109" stroke="#D1D5DB" stroke-width="1.04123" stroke-linecap="round" stroke-dasharray="3.12 3.12"/>
<path d="M70.9174 19.2431C70.3879 19.2446 69.8732 19.069 69.4552 18.744C69.0453 18.4257 68.7467 17.9857 68.6024 17.4872H60.8354C60.691 17.9857 60.3923 18.4257 59.9823 18.744C59.5635 19.0677 59.0492 19.2434 58.5199 19.2434C57.9906 19.2434 57.4763 19.0677 57.0576 18.744C56.6475 18.4257 56.3489 17.9857 56.2044 17.4872H55.2213C55.0769 17.9857 54.7784 18.4256 54.3685 18.744C53.9498 19.0676 53.4356 19.2431 52.9065 19.2431C52.3773 19.2431 51.8631 19.0676 51.4444 18.744C51.0341 18.4259 50.7352 17.9859 50.5907 17.4872H48.5748C48.3976 17.487 48.2277 17.4166 48.1024 17.2913C47.977 17.166 47.9065 16.9961 47.9062 16.8189V2.04159C47.9071 1.50003 48.1228 0.980938 48.506 0.598197C48.8891 0.215456 49.4084 0.00032399 49.95 0L65.5351 0C66.0765 0.000405455 66.5957 0.215592 66.9787 0.598342C67.3617 0.981092 67.5772 1.50014 67.5779 2.04159V4.18741H72.2414C72.6985 4.18577 73.1515 4.27504 73.5739 4.45002C73.9962 4.625 74.3796 4.88221 74.7017 5.20668L74.9791 5.48533C75.3039 5.80736 75.5613 6.19073 75.7366 6.61316C75.9118 7.03559 76.0013 7.48863 75.9999 7.94597V16.8189C75.9998 16.9962 75.9293 17.1662 75.8039 17.2915C75.6786 17.4168 75.5086 17.4873 75.3313 17.4875H73.2343C73.0898 17.9861 72.7912 18.4261 72.3812 18.7443C71.9626 19.0693 71.4473 19.2449 70.9174 19.2431ZM70.9174 15.7408C70.6349 15.743 70.3645 15.8551 70.1632 16.0533C69.962 16.2515 69.8458 16.5203 69.8393 16.8027C69.839 16.8053 69.839 16.808 69.8393 16.8106C69.8396 16.8134 69.8396 16.8162 69.8393 16.8189C69.8392 16.8228 69.8386 16.8266 69.8374 16.8303C69.8365 16.8334 69.836 16.8365 69.8359 16.8398C69.8393 17.0531 69.9058 17.2606 70.0268 17.4362C70.1479 17.6118 70.3182 17.7478 70.5163 17.8269C70.7143 17.906 70.9314 17.9248 71.1402 17.8809C71.3489 17.8371 71.54 17.7324 71.6895 17.5802C71.8389 17.428 71.94 17.235 71.9801 17.0255C72.0202 16.816 71.9974 16.5993 71.9147 16.4027C71.8319 16.2061 71.6929 16.0383 71.5151 15.9205C71.3373 15.8027 71.1286 15.74 70.9153 15.7405L70.9174 15.7408ZM58.5198 15.7408C58.235 15.7422 57.9621 15.8555 57.7601 16.0562C57.558 16.2569 57.4429 16.5289 57.4395 16.8137C57.4394 16.8145 57.4394 16.8154 57.4395 16.8162C57.4396 16.817 57.4396 16.8178 57.4395 16.8186C57.4398 16.8209 57.4398 16.8231 57.4395 16.8254C57.4393 16.8271 57.4393 16.8288 57.4395 16.8306C57.4411 17.0443 57.5059 17.2527 57.6258 17.4296C57.7457 17.6066 57.9152 17.744 58.1131 17.8247C58.311 17.9053 58.5284 17.9256 58.7378 17.8829C58.9472 17.8402 59.1393 17.7364 59.2898 17.5847C59.4403 17.433 59.5425 17.2402 59.5835 17.0304C59.6246 16.8207 59.6026 16.6035 59.5204 16.4063C59.4382 16.209 59.2994 16.0405 59.1215 15.922C58.9437 15.8035 58.7347 15.7404 58.521 15.7405L58.5198 15.7408ZM52.9069 15.7408C52.6237 15.7428 52.3525 15.8553 52.1509 16.0542C51.9493 16.2532 51.8333 16.5229 51.8276 16.8061C51.8273 16.8082 51.8273 16.8104 51.8276 16.8125C51.8279 16.8146 51.8279 16.8168 51.8276 16.8189C51.8275 16.8225 51.8269 16.826 51.8257 16.8293C51.8249 16.832 51.8243 16.8348 51.8242 16.8376C51.8273 17.0508 51.8933 17.2583 52.014 17.434C52.1347 17.6098 52.3047 17.7459 52.5025 17.8254C52.7004 17.9048 52.9173 17.9239 53.126 17.8804C53.3347 17.8369 53.5259 17.7327 53.6755 17.5808C53.8251 17.4289 53.9265 17.2362 53.9669 17.0269C54.0073 16.8175 53.9849 16.6009 53.9025 16.4043C53.8202 16.2076 53.6815 16.0397 53.504 15.9217C53.3264 15.8036 53.118 15.7407 52.9048 15.7408H52.9069ZM70.9174 14.404C71.4454 14.4024 71.9587 14.5771 72.3762 14.9003C72.7853 15.2168 73.0841 15.6542 73.2303 16.1504H74.6631V7.94474C74.6639 7.66318 74.6088 7.38427 74.5009 7.12419C74.393 6.86412 74.2345 6.62808 74.0347 6.42979L73.756 6.15114C73.5578 5.95108 73.3219 5.7924 73.0619 5.68431C72.8019 5.57622 72.523 5.52087 72.2414 5.5215H67.5779V16.1504H68.6057C68.7519 15.6542 69.0508 15.2168 69.4598 14.9003C69.8769 14.5772 70.3898 14.4025 70.9174 14.404ZM58.5198 14.404C59.0476 14.4024 59.5608 14.5771 59.978 14.9003C60.3869 15.2169 60.6856 15.6543 60.8317 16.1504H66.241V12.8553H49.2431V16.1504H50.594C50.7402 15.6542 51.039 15.2168 51.4481 14.9003C51.8661 14.5786 52.3788 14.4041 52.9063 14.4041C53.4338 14.4041 53.9465 14.5786 54.3646 14.9003C54.7737 15.2168 55.0726 15.6542 55.2189 16.1504H56.2069C56.3537 15.6543 56.6528 15.217 57.0618 14.9003C57.479 14.5772 57.9921 14.4025 58.5198 14.404ZM49.95 1.33562C49.7628 1.3357 49.5833 1.40994 49.4508 1.54208C49.3182 1.67423 49.2434 1.85351 49.2428 2.04067V11.5172H66.241V2.04159C66.2406 1.85475 66.1661 1.6757 66.034 1.54358C65.9019 1.41146 65.7228 1.33702 65.536 1.33654L49.95 1.33562ZM72.6699 10.8361H69.7142C69.5372 10.8357 69.3675 10.7651 69.2424 10.6397C69.1174 10.5144 69.0472 10.3446 69.0472 10.1675V7.29885C69.0472 7.1218 69.1174 6.95197 69.2424 6.82664C69.3675 6.7013 69.5372 6.63068 69.7142 6.63027H70.9505C71.5002 6.63113 72.0272 6.84906 72.417 7.23662L72.7306 7.55144C73.1184 7.94079 73.3368 8.46752 73.3382 9.01704V10.1678C73.3379 10.345 73.2675 10.5148 73.1422 10.6401C73.0169 10.7654 72.8471 10.8358 72.6699 10.8361ZM70.3837 7.96559V9.49831H72.0007V9.01704C71.9995 8.82171 71.9218 8.63465 71.7843 8.49591L71.4707 8.18231C71.3323 8.04437 71.145 7.9666 70.9496 7.96589L70.3837 7.96559ZM62.8427 8.91128C62.6655 8.91112 62.4956 8.84066 62.3703 8.71537C62.245 8.59008 62.1746 8.4202 62.1744 8.24301V4.37103C62.1744 4.1938 62.2448 4.02382 62.3701 3.89849C62.4955 3.77317 62.6654 3.70276 62.8427 3.70276C63.0199 3.70276 63.1899 3.77317 63.3152 3.89849C63.4405 4.02382 63.511 4.1938 63.511 4.37103V8.24332C63.5107 8.42048 63.4402 8.59031 63.3149 8.71558C63.1897 8.84086 63.0198 8.91134 62.8427 8.91158V8.91128ZM59.2868 8.91128C59.1095 8.91112 58.9396 8.84067 58.8143 8.71539C58.6889 8.59011 58.6184 8.42022 58.6182 8.24301V4.37103C58.6182 4.19376 58.6886 4.02374 58.814 3.89839C58.9393 3.77303 59.1093 3.70261 59.2866 3.70261C59.4639 3.70261 59.6339 3.77303 59.7592 3.89839C59.8846 4.02374 59.955 4.19376 59.955 4.37103V8.24332C59.9549 8.42029 59.8846 8.58999 59.7595 8.71524C59.6345 8.8405 59.465 8.9111 59.288 8.91158L59.2868 8.91128ZM55.7308 8.91128C55.5536 8.91112 55.3837 8.84067 55.2584 8.71539C55.133 8.59011 55.0625 8.42022 55.0622 8.24301V4.37103C55.0603 4.28205 55.0762 4.19358 55.109 4.11082C55.1417 4.02805 55.1906 3.95266 55.2529 3.88905C55.3151 3.82545 55.3895 3.77491 55.4715 3.74041C55.5536 3.70591 55.6417 3.68814 55.7307 3.68814C55.8197 3.68814 55.9078 3.70591 55.9898 3.74041C56.0719 3.77491 56.1462 3.82545 56.2085 3.88905C56.2707 3.95266 56.3196 4.02805 56.3524 4.11082C56.3851 4.19358 56.401 4.28205 56.3991 4.37103V8.24332C56.3989 8.42032 56.3285 8.59001 56.2034 8.71526C56.0783 8.84051 55.9087 8.9111 55.7317 8.91158L55.7308 8.91128ZM52.1767 8.91128C51.9995 8.91112 51.8297 8.84066 51.7044 8.71537C51.5791 8.59008 51.5086 8.4202 51.5085 8.24301V4.37103C51.5085 4.19376 51.5789 4.02374 51.7042 3.89839C51.8296 3.77303 51.9996 3.70261 52.1769 3.70261C52.3542 3.70261 52.5242 3.77303 52.6495 3.89839C52.7749 4.02374 52.8453 4.19376 52.8453 4.37103V8.24332C52.8451 8.42037 52.7747 8.59011 52.6495 8.71537C52.5244 8.84062 52.3547 8.91118 52.1777 8.91158L52.1767 8.91128Z" fill="#D1D5DB"/>
<line x1="80.6857" y1="9.10109" x2="116.097" y2="9.10109" stroke="#D1D5DB" stroke-width="1.04123" stroke-linecap="round" stroke-dasharray="3.12 3.12"/>
<circle cx="120.783" cy="9.62174" r="3.12369" fill="#D1D5DB"/>
</svg>
